<svg width="24" height="24" viewBox="0 0 24 24" fill="none" xmlns="http://www.w3.org/2000/svg">
<circle cx="12" cy="12" r="11.25" transform="matrix(-1 0 0 1 24 0)" fill="white" stroke="#EBEBEB" stroke-width="1.5"/>
<path d="M14.3797 7.28041C14.5264 7.42717 14.6088 7.62619 14.6088 7.83371C14.6088 8.04123 14.5264 8.24025 14.3797 8.38702L10.5057 12.2609L14.3797 16.1348C14.5222 16.2824 14.6011 16.4801 14.5993 16.6853C14.5975 16.8905 14.5152 17.0868 14.3701 17.2319C14.225 17.377 14.0287 17.4593 13.8235 17.4611C13.6183 17.4629 13.4207 17.384 13.2731 17.2414L8.84584 12.8142C8.69912 12.6675 8.6167 12.4684 8.6167 12.2609C8.6167 12.0534 8.69912 11.8544 8.84584 11.7076L13.2731 7.28041C13.4198 7.13369 13.6188 7.05127 13.8264 7.05127C14.0339 7.05127 14.2329 7.13369 14.3797 7.28041Z" fill="#ED1B24"/>
</svg>
