<svg width="125" height="36" viewBox="0 0 125 36" fill="none" xmlns="http://www.w3.org/2000/svg">
<path d="M14.5406 34.7358C11.6382 34.7358 9.11381 34.2114 6.96747 33.1626C4.82112 32.0894 3.17478 30.5772 2.02844 28.626C0.8821 26.6748 0.308929 24.4065 0.308929 21.8211C0.308929 18.2358 0.979661 15.0528 2.32112 12.2724C3.68698 9.49187 5.52844 7.34553 7.84551 5.83333C10.1626 4.29675 12.7358 3.52845 15.565 3.52845C18.1992 3.52845 20.1992 4.21138 21.565 5.57723C22.9309 6.9187 23.6138 8.69919 23.6138 10.9187C23.6138 12.4065 23.3455 13.6016 22.8089 14.5041C22.2967 15.4065 21.5528 15.8577 20.5772 15.8577C19.8943 15.8577 19.3577 15.6992 18.9675 15.3821C18.5772 15.065 18.3821 14.6016 18.3821 13.9919C18.3821 13.7724 18.4309 13.3699 18.5284 12.7846C18.6748 12.0528 18.748 11.4675 18.748 11.0285C18.748 8.80894 17.565 7.69919 15.1992 7.69919C13.5894 7.69919 12.0528 8.22357 10.5894 9.27236C9.126 10.3211 7.94308 11.8699 7.04064 13.9187C6.1382 15.9431 5.68698 18.3577 5.68698 21.1626C5.68698 24.0894 6.50405 26.3577 8.1382 27.9675C9.77234 29.5528 12.187 30.3455 15.3821 30.3455C16.9675 30.3455 18.565 30.1504 20.1748 29.7602C21.8089 29.3455 23.6138 28.7236 25.5894 27.8943C25.9553 27.748 26.2601 27.6748 26.504 27.6748C26.8943 27.6748 27.187 27.8211 27.3821 28.1138C27.5772 28.4065 27.6748 28.7846 27.6748 29.248C27.6748 30.7358 26.8699 31.8333 25.2601 32.5406C23.5284 33.2967 21.7236 33.8577 19.8455 34.2236C17.9919 34.565 16.2236 34.7358 14.5406 34.7358ZM43.1058 23.3211C43.4229 23.3211 43.6668 23.4797 43.8375 23.7967C44.0082 24.1138 44.0936 24.5163 44.0936 25.0041C44.0936 26.1748 43.7399 26.8699 43.0326 27.0894C41.5692 27.6016 39.9594 27.8943 38.2033 27.9675C37.7399 30.0163 36.8253 31.6626 35.4594 32.9065C34.0936 34.126 32.5448 34.7358 30.8131 34.7358C29.3497 34.7358 28.0936 34.3821 27.0448 33.6748C26.0204 32.9675 25.2399 32.0285 24.7033 30.8577C24.1668 29.687 23.8985 28.4187 23.8985 27.0528C23.8985 25.1992 24.2521 23.5528 24.9594 22.1138C25.6668 20.6504 26.6424 19.5163 27.8863 18.7114C29.1302 17.8821 30.5082 17.4675 32.0204 17.4675C33.8741 17.4675 35.3619 18.1138 36.4838 19.4065C37.6302 20.6748 38.3009 22.248 38.496 24.126C39.6424 24.0528 41.0082 23.8089 42.5936 23.3943C42.7887 23.3455 42.9594 23.3211 43.1058 23.3211ZM31.1058 30.8577C31.8863 30.8577 32.557 30.5406 33.118 29.9065C33.7033 29.2724 34.0936 28.3577 34.2887 27.1626C33.5326 26.6504 32.9472 25.9797 32.5326 25.1504C32.1424 24.3211 31.9472 23.4431 31.9472 22.5163C31.9472 22.126 31.9838 21.7358 32.057 21.3455H31.8741C30.8985 21.3455 30.0814 21.8211 29.4229 22.7724C28.7887 23.6992 28.4716 25.0163 28.4716 26.7236C28.4716 28.065 28.7277 29.0894 29.2399 29.7967C29.7765 30.5041 30.3985 30.8577 31.1058 30.8577ZM45.4535 34.7358C43.9413 34.7358 42.734 34.187 41.8316 33.0894C40.9292 31.9919 40.4779 30.5528 40.4779 28.7724C40.4779 26.8211 40.9292 24.9797 41.8316 23.248C42.734 21.4919 43.9291 20.0894 45.417 19.0406C46.9291 17.9675 48.5267 17.4309 50.2096 17.4309C50.7462 17.4309 51.0999 17.5406 51.2706 17.7602C51.4657 17.9553 51.6243 18.3211 51.7462 18.8577C52.2584 18.7602 52.795 18.7114 53.356 18.7114C54.5511 18.7114 55.1487 19.1382 55.1487 19.9919C55.1487 20.5041 54.9657 21.7236 54.5999 23.6504C54.0389 26.4553 53.7584 28.4065 53.7584 29.5041C53.7584 29.8699 53.8438 30.1626 54.0145 30.3821C54.2096 30.6016 54.4535 30.7114 54.7462 30.7114C55.2096 30.7114 55.7706 30.4187 56.4291 29.8333C57.0877 29.2236 57.9779 28.248 59.0999 26.9065C59.3926 26.565 59.7218 26.3943 60.0877 26.3943C60.4048 26.3943 60.6487 26.5406 60.8194 26.8333C61.0145 27.126 61.1121 27.5285 61.1121 28.0406C61.1121 29.0163 60.8804 29.7724 60.417 30.3089C59.417 31.5528 58.356 32.6016 57.234 33.4553C56.1121 34.3089 55.0267 34.7358 53.9779 34.7358C53.1731 34.7358 52.4292 34.4675 51.7462 33.9309C51.0877 33.3699 50.5877 32.6138 50.2462 31.6626C48.9779 33.7114 47.3804 34.7358 45.4535 34.7358ZM46.7706 31.0406C47.3072 31.0406 47.8194 30.7236 48.3072 30.0894C48.795 29.4553 49.1487 28.6138 49.3682 27.565L50.7218 20.8333C49.6974 20.8577 48.7462 21.248 47.8682 22.0041C47.0145 22.7358 46.3316 23.7114 45.8194 24.9309C45.3072 26.1504 45.0511 27.4431 45.0511 28.8089C45.0511 29.565 45.1974 30.126 45.4901 30.4919C45.8072 30.8577 46.234 31.0406 46.7706 31.0406ZM65.1265 34.7358C62.7363 34.7358 60.8704 34.065 59.5289 32.7236C58.2119 31.3577 57.5533 29.565 57.5533 27.3455C57.5533 25.3699 57.9436 23.6382 58.7241 22.1504C59.5046 20.6626 60.5168 19.5163 61.7607 18.7114C63.0046 17.9065 64.3094 17.5041 65.6753 17.5041C67.0167 17.5041 68.0533 17.9065 68.785 18.7114C69.5411 19.4919 69.9192 20.5041 69.9192 21.748C69.9192 22.7724 69.6875 23.6382 69.2241 24.3455C68.785 25.0528 68.1997 25.4065 67.468 25.4065C67.0046 25.4065 66.6265 25.2967 66.3338 25.0772C66.0655 24.8577 65.9314 24.5528 65.9314 24.1626C65.9314 23.9919 65.9558 23.7967 66.0046 23.5772C66.0533 23.3577 66.0899 23.1992 66.1143 23.1016C66.2363 22.7358 66.2972 22.3943 66.2972 22.0772C66.2972 21.7602 66.2119 21.5163 66.0411 21.3455C65.8948 21.1748 65.6753 21.0894 65.3826 21.0894C64.8216 21.0894 64.2972 21.3455 63.8094 21.8577C63.3216 22.3455 62.9314 23.0163 62.6387 23.8699C62.346 24.7236 62.1997 25.6626 62.1997 26.687C62.1997 29.5163 63.4314 30.9309 65.8948 30.9309C66.8948 30.9309 67.968 30.6016 69.1143 29.9431C70.285 29.2602 71.4314 28.248 72.5533 26.9065C72.846 26.565 73.1753 26.3943 73.5411 26.3943C73.8582 26.3943 74.1021 26.5406 74.2729 26.8333C74.468 27.126 74.5655 27.5285 74.5655 28.0406C74.5655 28.9675 74.3338 29.7236 73.8704 30.3089C72.7241 31.7236 71.346 32.8211 69.7363 33.6016C68.1509 34.3577 66.6143 34.7358 65.1265 34.7358ZM91.913 26.3943C92.2301 26.3943 92.474 26.5406 92.6447 26.8333C92.8398 27.126 92.9374 27.5285 92.9374 28.0406C92.9374 29.0163 92.7057 29.7724 92.2423 30.3089C91.1203 31.6016 89.9618 32.6626 88.7666 33.4919C87.5959 34.3211 86.2545 34.7358 84.7423 34.7358C83.4984 34.7358 82.5593 34.3821 81.9252 33.6748C81.291 32.9431 80.974 31.8943 80.974 30.5285C80.974 29.8455 81.1447 28.626 81.4862 26.8699C81.8032 25.3333 81.9618 24.2724 81.9618 23.687C81.9618 23.2967 81.8276 23.1016 81.5593 23.1016C81.2423 23.1016 80.791 23.5163 80.2057 24.3455C79.6203 25.1504 79.0349 26.2236 78.4496 27.565C77.8642 28.9065 77.3886 30.3211 77.0227 31.8089C76.5593 33.7602 75.413 34.7358 73.5837 34.7358C72.852 34.7358 72.3642 34.4797 72.1203 33.9675C71.9008 33.4309 71.791 32.4797 71.791 31.1138C71.791 30.3333 71.8032 29.7114 71.8276 29.248L71.8642 26.3211C71.8642 22.565 72.2423 18.6504 72.9984 14.5772C73.7788 10.5041 74.913 7.08943 76.4008 4.33333C77.913 1.55284 79.7179 0.162598 81.8154 0.162598C82.9374 0.162598 83.8398 0.650402 84.5228 1.62601C85.2301 2.57723 85.5837 3.82114 85.5837 5.35772C85.5837 7.82114 84.8642 10.3821 83.4252 13.0406C81.9862 15.6748 79.6447 18.7602 76.4008 22.2967C76.3276 23.565 76.291 24.8699 76.291 26.2114C77.0959 24.1382 77.9862 22.4553 78.9618 21.1626C79.9618 19.8455 80.9374 18.9065 81.8886 18.3455C82.8642 17.7846 83.7545 17.5041 84.5593 17.5041C86.1447 17.5041 86.9374 18.2967 86.9374 19.8821C86.9374 20.8333 86.6691 22.5528 86.1325 25.0406C85.6691 27.1626 85.4374 28.565 85.4374 29.248C85.4374 30.2236 85.791 30.7114 86.4984 30.7114C86.9862 30.7114 87.5593 30.4187 88.2179 29.8333C88.9008 29.2236 89.8032 28.248 90.9252 26.9065C91.2179 26.565 91.5471 26.3943 91.913 26.3943ZM81.0471 3.78455C80.6081 3.78455 80.1203 4.4187 79.5837 5.68699C79.0471 6.93089 78.5227 8.62601 78.0106 10.7724C77.5227 12.8943 77.1203 15.2114 76.8032 17.7236C78.3154 15.9431 79.5593 14.0041 80.5349 11.9065C81.5349 9.80894 82.0349 7.9065 82.0349 6.19918C82.0349 5.4187 81.9496 4.82114 81.7788 4.4065C81.6081 3.99187 81.3642 3.78455 81.0471 3.78455ZM106.29 26.3943C106.607 26.3943 106.851 26.5406 107.021 26.8333C107.216 27.126 107.314 27.5285 107.314 28.0406C107.314 29.0163 107.082 29.7724 106.619 30.3089C105.716 31.4065 104.436 32.4187 102.777 33.3455C101.143 34.2724 99.3869 34.7358 97.5088 34.7358C94.9479 34.7358 92.9601 34.0406 91.5454 32.6504C90.1308 31.2602 89.4235 29.3577 89.4235 26.9431C89.4235 25.2602 89.7771 23.6992 90.4844 22.2602C91.1917 20.7967 92.1674 19.6382 93.4113 18.7845C94.6796 17.9309 96.1064 17.5041 97.6917 17.5041C99.1064 17.5041 100.241 17.9309 101.094 18.7845C101.948 19.6138 102.375 20.748 102.375 22.187C102.375 23.8699 101.765 25.3211 100.545 26.5406C99.3503 27.7358 97.3137 28.687 94.4357 29.3943C95.0454 30.5163 96.2039 31.0772 97.9113 31.0772C99.0088 31.0772 100.253 30.6992 101.643 29.9431C103.058 29.1626 104.277 28.1504 105.302 26.9065C105.594 26.565 105.924 26.3943 106.29 26.3943ZM97.0698 21.0894C96.1674 21.0894 95.3991 21.6138 94.7649 22.6626C94.1552 23.7114 93.8503 24.9797 93.8503 26.4675V26.5406C95.2893 26.1992 96.4235 25.687 97.2527 25.0041C98.082 24.3211 98.4966 23.5285 98.4966 22.626C98.4966 22.1626 98.3625 21.7967 98.0942 21.5285C97.8503 21.2358 97.5088 21.0894 97.0698 21.0894ZM117.474 26.3943C117.742 28.3943 118.132 30.3699 118.644 32.3211C118.742 32.6382 118.791 32.9675 118.791 33.3089C118.791 34.4065 118.12 34.9553 116.778 34.9553C116.022 34.9553 115.437 34.748 115.022 34.3333C114.632 33.9187 114.266 33.1382 113.925 31.9919L113.888 31.8455C112.961 32.9919 112.12 33.7602 111.364 34.1504C110.632 34.5406 109.778 34.7358 108.803 34.7358C107.315 34.7358 106.083 34.187 105.108 33.0894C104.156 31.9675 103.681 30.5163 103.681 28.7358C103.681 26.7845 104.096 24.9797 104.925 23.3211C105.754 21.6626 106.888 20.3089 108.327 19.2602C109.766 18.187 111.376 17.5406 113.156 17.3211C113.62 12.7114 114.498 8.69918 115.791 5.28455C117.108 1.86992 118.852 0.162598 121.022 0.162598C122.071 0.162598 122.937 0.638207 123.62 1.58943C124.327 2.54065 124.681 3.97967 124.681 5.9065C124.681 8.58943 124.022 11.7236 122.705 15.3089C121.388 18.8943 119.644 22.5894 117.474 26.3943ZM120.62 3.74797C119.913 3.74797 119.242 5.55284 118.608 9.1626C117.998 12.7724 117.583 16.6992 117.364 20.9431C120.071 15.0894 121.425 10.3333 121.425 6.67479C121.425 5.74797 121.339 5.02845 121.169 4.51626C121.022 4.00406 120.839 3.74797 120.62 3.74797ZM110.083 31.0406C110.571 31.0406 111.035 30.8577 111.474 30.4919C111.937 30.126 112.522 29.4187 113.23 28.3699C112.986 26.5894 112.864 24.748 112.864 22.8455C112.864 22.0894 112.876 21.5041 112.9 21.0894C111.559 21.4797 110.449 22.3699 109.571 23.7602C108.693 25.1504 108.254 26.687 108.254 28.3699C108.254 30.1504 108.864 31.0406 110.083 31.0406Z" fill="#ED1B24"/>
</svg>
