<svg width="397" height="332" viewBox="0 0 397 332" fill="none" xmlns="http://www.w3.org/2000/svg">
<g clip-path="url(#clip0_1202_43006)">
<path d="M271.067 -7.56354e-05L0 160.624L8.15214 174.381L279.219 13.7574L271.067 -7.56354e-05Z" fill="#ED1B24"/>
<path d="M329.983 13.4665L58.9157 174.09L67.0679 187.848L338.135 27.2239L329.983 13.4665Z" fill="#E2E3E4"/>
<path d="M382.165 28.1952L111.098 188.819L119.25 202.576L390.317 41.9527L382.165 28.1952Z" fill="#ED1B24"/>
<path d="M176.56 188.29C223.431 188.29 261.428 150.293 261.428 103.422C261.428 56.5506 223.431 18.554 176.56 18.554C129.689 18.554 91.6923 56.5506 91.6923 103.422C91.6923 150.293 129.689 188.29 176.56 188.29Z" fill="white"/>
<path d="M91.0611 103.422C91.0611 56.2776 129.416 17.9229 176.56 17.9229C223.705 17.9229 262.059 56.2776 262.059 103.422C262.059 150.566 223.705 188.921 176.56 188.921C129.416 188.921 91.0611 150.566 91.0611 103.422ZM92.3236 103.422C92.3236 149.87 130.112 187.659 176.56 187.659C223.008 187.659 260.797 149.87 260.797 103.422C260.797 56.9738 223.008 19.1853 176.56 19.1853C130.112 19.1853 92.3236 56.9738 92.3236 103.422Z" fill="#3F3D56"/>
<path d="M161.432 103.791C161.432 100.799 162.319 97.8736 163.981 95.3857C165.644 92.8978 168.006 90.9588 170.771 89.8137C173.535 88.6687 176.577 88.3691 179.512 88.9528C182.446 89.5365 185.142 90.9774 187.258 93.0932C189.373 95.209 190.814 97.9046 191.398 100.839C191.982 103.774 191.682 106.816 190.537 109.58C189.392 112.345 187.453 114.707 184.965 116.37C182.477 118.032 179.552 118.919 176.56 118.919C172.548 118.919 168.7 117.325 165.863 114.488C163.025 111.651 161.432 107.803 161.432 103.791ZM176.56 89.4001C172.745 89.4044 169.087 90.9219 166.389 93.6198C163.691 96.3176 162.174 99.9755 162.17 103.791C162.17 106.637 163.014 109.419 164.595 111.786C166.176 114.152 168.424 115.997 171.053 117.086C173.683 118.175 176.576 118.46 179.368 117.905C182.159 117.35 184.723 115.979 186.736 113.966C188.748 111.954 190.119 109.39 190.674 106.598C191.23 103.807 190.945 100.913 189.855 98.2837C188.766 95.6542 186.922 93.4066 184.555 91.8254C182.189 90.2441 179.406 89.4001 176.56 89.4001Z" fill="#3F3D56"/>
<path d="M147.779 103.791C147.779 98.0984 149.467 92.5338 152.629 87.8008C155.792 83.0677 160.287 79.3788 165.546 77.2004C170.805 75.022 176.592 74.452 182.175 75.5626C187.758 76.6731 192.886 79.4143 196.912 83.4394C200.937 87.4645 203.678 92.5928 204.788 98.1759C205.899 103.759 205.329 109.546 203.151 114.805C200.972 120.064 197.283 124.559 192.55 127.722C187.817 130.884 182.253 132.572 176.56 132.572C172.781 132.572 169.038 131.828 165.546 130.381C162.054 128.935 158.881 126.815 156.209 124.142C153.536 121.47 151.416 118.297 149.97 114.805C148.523 111.313 147.779 107.57 147.779 103.791ZM176.56 75.7475C171.014 75.7475 165.592 77.3922 160.98 80.4736C156.368 83.5551 152.774 87.9349 150.652 93.0591C148.529 98.1833 147.974 103.822 149.056 109.262C150.138 114.702 152.809 119.698 156.731 123.62C160.652 127.542 165.649 130.213 171.089 131.295C176.529 132.377 182.168 131.822 187.292 129.699C192.416 127.577 196.796 123.983 199.877 119.371C202.959 114.759 204.603 109.337 204.603 103.791C204.595 96.3558 201.638 89.2278 196.381 83.9704C191.123 78.7131 183.995 75.7559 176.56 75.7475Z" fill="#CCCCCC"/>
<path d="M120.474 103.791C120.474 92.6978 123.763 81.8541 129.926 72.6307C136.089 63.4073 144.848 56.2185 155.097 51.9735C165.345 47.7284 176.622 46.6177 187.502 48.7818C198.382 50.9459 208.376 56.2877 216.219 64.1315C224.063 71.9754 229.405 81.9691 231.569 92.8488C233.733 103.729 232.623 115.006 228.377 125.254C224.132 135.503 216.944 144.262 207.72 150.425C198.497 156.588 187.653 159.877 176.56 159.877C161.69 159.861 147.434 153.946 136.919 143.431C126.405 132.917 120.49 118.661 120.474 103.791ZM176.56 48.4421C165.613 48.4421 154.912 51.6883 145.81 57.7701C136.708 63.8518 129.614 72.4961 125.425 82.6098C121.236 92.7234 120.139 103.852 122.275 114.589C124.411 125.325 129.682 135.187 137.423 142.928C145.163 150.669 155.026 155.94 165.762 158.076C176.499 160.212 187.628 159.115 197.741 154.926C207.855 150.737 216.499 143.643 222.581 134.541C228.663 125.439 231.909 114.738 231.909 103.791C231.892 89.1165 226.056 75.048 215.679 64.6717C205.303 54.2954 191.234 48.4587 176.56 48.4421Z" fill="#CCCCCC"/>
<path d="M176.56 110.433C180.432 110.433 183.571 107.294 183.571 103.422C183.571 99.5497 180.432 96.4109 176.56 96.4109C172.688 96.4109 169.549 99.5497 169.549 103.422C169.549 107.294 172.688 110.433 176.56 110.433Z" fill="#ED1B24"/>
<path d="M158.48 130.727C162.352 130.727 165.49 127.588 165.49 123.716C165.49 119.844 162.352 116.706 158.48 116.706C154.608 116.706 151.469 119.844 151.469 123.716C151.469 127.588 154.608 130.727 158.48 130.727Z" fill="#ED1B24"/>
<path d="M229.018 127.775C232.89 127.775 236.028 124.636 236.028 120.764C236.028 116.893 232.89 113.754 229.018 113.754C225.146 113.754 222.007 116.893 222.007 120.764C222.007 124.636 225.146 127.775 229.018 127.775Z" fill="#ED1B24"/>
<path d="M176.56 106.743C178.394 106.743 179.881 105.256 179.881 103.422C179.881 101.588 178.394 100.101 176.56 100.101C174.726 100.101 173.239 101.588 173.239 103.422C173.239 105.256 174.726 106.743 176.56 106.743Z" fill="#2F2E41"/>
<path d="M229.018 124.085C230.852 124.085 232.339 122.598 232.339 120.764C232.339 118.93 230.852 117.443 229.018 117.443C227.184 117.443 225.697 118.93 225.697 120.764C225.697 122.598 227.184 124.085 229.018 124.085Z" fill="#2F2E41"/>
<path d="M158.48 127.406C160.314 127.406 161.801 125.919 161.801 124.085C161.801 122.251 160.314 120.764 158.48 120.764C156.646 120.764 155.159 122.251 155.159 124.085C155.159 125.919 156.646 127.406 158.48 127.406Z" fill="#2F2E41"/>
<path d="M21.584 69.4746C23.4181 69.4746 24.9049 67.9878 24.9049 66.1537C24.9049 64.3196 23.4181 62.8328 21.584 62.8328C19.7499 62.8328 18.2631 64.3196 18.2631 66.1537C18.2631 67.9878 19.7499 69.4746 21.584 69.4746Z" fill="#ED1B24"/>
<path d="M176.375 66.3386H30.624V65.6006H177.114V103.606H176.375V66.3386Z" fill="#2F2E41"/>
<path d="M11.9902 66.1538C11.9902 64.2564 12.5529 62.4015 13.6071 60.8238C14.6612 59.2461 16.1596 58.0165 17.9126 57.2904C19.6656 56.5642 21.5946 56.3742 23.4556 56.7444C25.3167 57.1146 27.0261 58.0283 28.3678 59.37C29.7095 60.7117 30.6232 62.4212 30.9934 64.2822C31.3636 66.1432 31.1736 68.0722 30.4475 69.8252C29.7214 71.5782 28.4917 73.0766 26.914 74.1308C25.3363 75.1849 23.4815 75.7476 21.584 75.7476C20.3241 75.7476 19.0766 75.4995 17.9126 75.0173C16.7487 74.5352 15.6911 73.8285 14.8002 72.9377C13.9093 72.0468 13.2026 70.9892 12.7205 69.8252C12.2384 68.6613 11.9902 67.4137 11.9902 66.1538ZM21.584 57.2981C19.8325 57.2981 18.1203 57.8174 16.664 58.7905C15.2077 59.7636 14.0726 61.1467 13.4023 62.7649C12.7321 64.3831 12.5567 66.1637 12.8984 67.8815C13.2401 69.5994 14.0835 71.1773 15.322 72.4158C16.5605 73.6543 18.1385 74.4978 19.8563 74.8395C21.5742 75.1812 23.3548 75.0058 24.973 74.3355C26.5911 73.6653 27.9742 72.5302 28.9473 71.0739C29.9204 69.6175 30.4398 67.9053 30.4398 66.1538C30.4371 63.806 29.5032 61.555 27.843 59.8948C26.1828 58.2346 23.9319 57.3008 21.584 57.2981Z" fill="#2F2E41"/>
<path d="M43.7235 165.043C45.5576 165.043 47.0444 163.556 47.0444 161.722C47.0444 159.888 45.5576 158.401 43.7235 158.401C41.8894 158.401 40.4026 159.888 40.4026 161.722C40.4026 163.556 41.8894 165.043 43.7235 165.043Z" fill="#ED1B24"/>
<path d="M34.1297 161.722C34.1297 159.825 34.6924 157.97 35.7466 156.392C36.8007 154.815 38.2991 153.585 40.0521 152.859C41.8051 152.133 43.7341 151.943 45.5951 152.313C47.4561 152.683 49.1656 153.597 50.5073 154.939C51.849 156.28 52.7627 157.99 53.1329 159.851C53.5031 161.712 53.3131 163.641 52.5869 165.394C51.8608 167.147 50.6312 168.645 49.0535 169.699C47.4758 170.754 45.6209 171.316 43.7235 171.316C41.179 171.316 38.7388 170.305 36.9397 168.506C35.1405 166.707 34.1297 164.267 34.1297 161.722ZM43.7235 152.867C41.972 152.867 40.2598 153.386 38.8035 154.359C37.3471 155.332 36.2121 156.715 35.5418 158.333C34.8715 159.952 34.6961 161.732 35.0378 163.45C35.3795 165.168 36.223 166.746 37.4615 167.984C38.7 169.223 40.2779 170.066 41.9958 170.408C43.7136 170.75 45.4942 170.574 47.1124 169.904C48.7306 169.234 50.1137 168.099 51.0868 166.642C52.0598 165.186 52.5792 163.474 52.5792 161.722C52.5765 159.375 51.6427 157.124 49.9825 155.463C48.3223 153.803 46.0713 152.869 43.7235 152.867Z" fill="#2F2E41"/>
<path d="M331.966 84.9724C333.8 84.9724 335.287 83.4856 335.287 81.6515C335.287 79.8174 333.8 78.3306 331.966 78.3306C330.132 78.3306 328.645 79.8174 328.645 81.6515C328.645 83.4856 330.132 84.9724 331.966 84.9724Z" fill="#ED1B24"/>
<path d="M322.372 81.6514C322.372 79.7539 322.935 77.8991 323.989 76.3214C325.043 74.7437 326.542 73.514 328.295 72.7879C330.048 72.0618 331.977 71.8718 333.838 72.242C335.699 72.6121 337.408 73.5259 338.75 74.8676C340.092 76.2093 341.005 77.9187 341.375 79.7797C341.746 81.6407 341.556 83.5697 340.83 85.3228C340.103 87.0758 338.874 88.5741 337.296 89.6283C335.718 90.6825 333.864 91.2451 331.966 91.2452C330.706 91.2452 329.459 90.997 328.295 90.5149C327.131 90.0327 326.073 89.3261 325.182 88.4352C324.291 87.5443 323.585 86.4867 323.103 85.3228C322.62 84.1588 322.372 82.9113 322.372 81.6514ZM331.966 72.7956C329.618 72.7983 327.367 73.7322 325.707 75.3924C324.047 77.0526 323.113 79.3035 323.11 81.6514C323.11 83.4029 323.63 85.1151 324.603 86.5714C325.576 88.0277 326.959 89.1628 328.577 89.8331C330.195 90.5033 331.976 90.6787 333.694 90.337C335.412 89.9953 336.99 89.1519 338.228 87.9133C339.467 86.6748 340.31 85.0969 340.652 83.379C340.993 81.6612 340.818 79.8806 340.148 78.2624C339.477 76.6442 338.342 75.2611 336.886 74.2881C335.43 73.315 333.718 72.7956 331.966 72.7956Z" fill="#2F2E41"/>
<path d="M228.648 82.764L322.736 81.2825L322.747 82.02L229.387 83.4905V120.764H228.648V82.764Z" fill="#2F2E41"/>
<path d="M52.9485 161.353H158.111V124.085H158.848V162.091H52.9485V161.353Z" fill="#2F2E41"/>
<path d="M41.8786 83.4963H1.28955V86.0793H41.8786V83.4963Z" fill="#CCCCCC"/>
<path d="M41.8786 90.8762H1.28955V93.4592H41.8786V90.8762Z" fill="#CCCCCC"/>
<path d="M41.8786 98.2559H1.28955V100.839H41.8786V98.2559Z" fill="#CCCCCC"/>
<path d="M64.018 179.065H23.429V181.648H64.018V179.065Z" fill="#CCCCCC"/>
<path d="M64.018 186.445H23.429V189.028H64.018V186.445Z" fill="#CCCCCC"/>
<path d="M64.018 193.824H23.429V196.407H64.018V193.824Z" fill="#CCCCCC"/>
<path d="M352.261 99.363H311.672V101.946H352.261V99.363Z" fill="#CCCCCC"/>
<path d="M352.261 106.743H311.672V109.326H352.261V106.743Z" fill="#CCCCCC"/>
<path d="M352.261 114.123H311.672V116.705H352.261V114.123Z" fill="#CCCCCC"/>
<path d="M371.583 319.431L365.811 321.494L355.107 300.211L363.626 297.166L371.583 319.431Z" fill="#FFB8B8"/>
<path d="M356.443 331.151L356.359 330.916C355.674 328.994 355.78 326.88 356.653 325.037C357.526 323.193 359.094 321.771 361.014 321.082L372.382 317.02L375.055 324.5L356.443 331.151Z" fill="#2F2E41"/>
<path d="M334.047 325.14L327.918 325.14L325.001 301.496L334.048 301.496L334.047 325.14Z" fill="#FFB8B8"/>
<path d="M335.611 331.082L315.845 331.081V330.831C315.845 329.821 316.044 328.821 316.431 327.887C316.818 326.954 317.384 326.106 318.099 325.391C318.813 324.677 319.661 324.11 320.594 323.724C321.528 323.337 322.528 323.138 323.539 323.138L335.611 323.139L335.611 331.082Z" fill="#2F2E41"/>
<path d="M348.017 174.085L345.352 168.817C345.352 168.817 335.42 171.306 334.517 177.061L348.017 174.085Z" fill="#ED1B24"/>
<path d="M359.017 234.317L351.767 274.774L371.017 308.817L359.517 313.317L340.017 280.317L337.517 271.317L336.017 318.317L325.646 318.002L320.891 274.116L328.517 233.317L359.017 234.317Z" fill="#2F2E41"/>
<path d="M324.391 241.616C324.166 240.614 323.52 210.029 323.52 210.029C323.52 210.029 334.183 175.025 334.281 174.737L334.319 174.625L342.414 171.59C342.528 171.538 345.225 170.336 347.432 171.338C347.998 171.613 348.497 172.009 348.894 172.497C349.292 172.986 349.578 173.555 349.732 174.165C350.651 174.849 357.267 182.261 357.267 192.315L357.517 216.04L363.065 241.76L362.819 241.812C362.668 241.844 355.906 243.881 345.255 243.881C339.338 243.881 324.391 241.616 324.391 241.616Z" fill="#3F3D56"/>
<path d="M337.071 167.159C343.114 167.159 348.013 162.26 348.013 156.217C348.013 150.175 343.114 145.276 337.071 145.276C331.029 145.276 326.13 150.175 326.13 156.217C326.13 162.26 331.029 167.159 337.071 167.159Z" fill="#FFB8B8"/>
<path opacity="0.2" d="M352.659 204.42L333.517 231.128L330.69 218.656L352.659 204.42Z" fill="black"/>
<path d="M318.686 231.704C319.371 231.677 320.043 231.5 320.653 231.185C321.263 230.87 321.796 230.425 322.216 229.882C322.635 229.339 322.931 228.71 323.081 228.04C323.231 227.37 323.233 226.676 323.085 226.005L337.308 217.281L329.455 213.606L317.152 222.455C316.042 222.777 315.089 223.495 314.473 224.473C313.857 225.451 313.621 226.621 313.81 227.761C313.999 228.901 314.6 229.932 315.499 230.659C316.397 231.386 317.531 231.758 318.686 231.704Z" fill="#FFB8B8"/>
<path d="M328.517 213.817L323.646 217.231L327.777 224.567L333.517 219.817L328.517 213.817Z" fill="#ED1B24"/>
<path d="M325.967 214.033L337.426 200.751L333.036 182.432C332.582 180.539 332.832 178.545 333.741 176.823C334.649 175.101 336.154 173.769 337.972 173.075C339.791 172.381 341.801 172.372 343.625 173.051C345.45 173.73 346.965 175.05 347.888 176.764L347.988 176.949L352.033 204.153L331.706 224.989L325.967 214.033Z" fill="#3F3D56"/>
<path d="M346.391 165.717L337.31 166.043C336.756 166.063 335.254 160.089 335.057 158.849C334.902 158.043 334.458 157.32 333.808 156.816C333.159 156.313 332.349 156.063 331.529 156.113C330.849 156.177 329.135 154.907 327.366 153.403C324.007 150.548 324.182 145.186 327.871 142.773C327.972 142.707 328.071 142.647 328.168 142.593C330.495 141.29 333.218 140.853 335.885 140.819C338.302 140.789 340.788 141.093 342.918 142.238C346.736 144.289 348.768 148.772 348.947 153.103C349.125 157.434 347.737 161.668 346.162 165.706" fill="#2F2E41"/>
<path d="M396.281 331.232H285.781C285.649 331.232 285.522 331.179 285.428 331.086C285.334 330.992 285.281 330.865 285.281 330.732C285.281 330.599 285.334 330.472 285.428 330.378C285.522 330.285 285.649 330.232 285.781 330.232H396.281C396.414 330.232 396.541 330.285 396.635 330.378C396.729 330.472 396.781 330.599 396.781 330.732C396.781 330.865 396.729 330.992 396.635 331.086C396.541 331.179 396.414 331.232 396.281 331.232Z" fill="#3F3D56"/>
</g>
<defs>
<clipPath id="clip0_1202_43006">
<rect width="396.781" height="331.232" fill="white"/>
</clipPath>
</defs>
</svg>
