<svg width="7" height="11" viewBox="0 0 7 11" fill="none" xmlns="http://www.w3.org/2000/svg">
<path d="M6.37966 0.280407C6.52638 0.427168 6.6088 0.626191 6.6088 0.833711C6.6088 1.04123 6.52638 1.24025 6.37966 1.38702L2.50575 5.26093L6.37966 9.13484C6.52222 9.28244 6.6011 9.48013 6.59932 9.68533C6.59754 9.89053 6.51523 10.0868 6.37013 10.2319C6.22503 10.377 6.02874 10.4593 5.82354 10.4611C5.61834 10.4629 5.42066 10.384 5.27305 10.2414L0.845836 5.81423C0.69912 5.66747 0.616699 5.46845 0.616699 5.26093C0.616699 5.05341 0.69912 4.85438 0.845836 4.70762L5.27305 0.280407C5.41981 0.13369 5.61884 0.0512696 5.82636 0.0512696C6.03388 0.0512696 6.2329 0.13369 6.37966 0.280407Z" fill="#ED1B24"/>
</svg>
